<svg xmlns="http://www.w3.org/2000/svg" xmlns:xlink="http://www.w3.org/1999/xlink" width="1781.57" height="1136" viewBox="0 0 1781.57 1136">
  <defs>
    <filter id="Path_12250" x="0" y="0" width="1781.57" height="1136" filterUnits="userSpaceOnUse">
      <feOffset dy="32" input="SourceAlpha"/>
      <feGaussianBlur stdDeviation="8" result="blur"/>
      <feFlood flood-opacity="0.239"/>
      <feComposite operator="in" in2="blur"/>
      <feComposite in="SourceGraphic"/>
    </filter>
    <linearGradient id="linear-gradient" x1="0.99" y1="0.479" x2="-1.038" y2="0.56" gradientUnits="objectBoundingBox">
      <stop offset="0"/>
      <stop offset="0.258" stop-color="#020202"/>
      <stop offset="0.38" stop-color="#0a0a0a"/>
      <stop offset="0.474" stop-color="#171717"/>
      <stop offset="0.553" stop-color="#292929"/>
      <stop offset="0.622" stop-color="#414141"/>
      <stop offset="0.686" stop-color="#5e5e5e"/>
      <stop offset="0.744" stop-color="#818181"/>
      <stop offset="0.799" stop-color="#aaa"/>
      <stop offset="0.849" stop-color="#d7d7d7"/>
      <stop offset="0.887" stop-color="#fff"/>
    </linearGradient>
    <clipPath id="clip-path">
      <path id="Path_12257" data-name="Path 12257" d="M1734.97,1017.876a66.3,66.3,0,0,1-66.224,66.223H67.623A66.3,66.3,0,0,1,1.4,1017.876V70.323A66.3,66.3,0,0,1,67.623,4.1H1668.747a66.3,66.3,0,0,1,66.224,66.223v947.553Z" transform="translate(-1.4 -4.1)"/>
    </clipPath>
  </defs>
  <g id="Fincra_card" data-name="Fincra card" transform="translate(22.6 -4.1)">
    <g id="Group_241" data-name="Group 241" transform="translate(1.4 4.1)">
      <g id="Group_237" data-name="Group 237">
        <g transform="matrix(1, 0, 0, 1, -24, 0)" filter="url(#Path_12250)">
          <path id="Path_12250-2" data-name="Path 12250" d="M1734.97,1017.876a66.3,66.3,0,0,1-66.224,66.223H67.623A66.3,66.3,0,0,1,1.4,1017.876V70.323A66.3,66.3,0,0,1,67.623,4.1H1668.747a66.3,66.3,0,0,1,66.224,66.223v947.553Z" transform="translate(22.6 -4.1)" fill="#7535fd" fill-rule="evenodd"/>
        </g>
        <path id="Path_12251" data-name="Path 12251" d="M1293.055,4.1H73.8l641.811,1080h577.444a66.3,66.3,0,0,0,66.224-66.223V70.323A66.3,66.3,0,0,0,1293.055,4.1Z" transform="translate(374.292 -4.1)" fill="url(#linear-gradient)"/>
      </g>
      <g id="Group_239" data-name="Group 239" transform="translate(0 0)">
        <g id="Group_238" data-name="Group 238" opacity="0.04" clip-path="url(#clip-path)">
          <path id="Path_12252" data-name="Path 12252" d="M242.591,43.257v72.413c-9.284-.619-17.329-1.857-24.138-1.857-43.324,0-72.413,27.232-72.413,72.413v55.083h95.312V313.1H145.422V621.939H61.25V313.1H-12.4V240.689H61.25V188.082c0-91.6,57.559-146.682,148.539-146.682A268.168,268.168,0,0,1,242.591,43.257ZM394.225,72.346c21.043,19.805,21.043,52.607,0,73.65a55.405,55.405,0,0,1-75.507,0c-20.424-21.043-20.424-53.226,0-73.65S372.563,51.921,394.225,72.346Zm4.332,549.593H313.766V240.689h84.791Z" transform="translate(-73.01 189.454)" fill="#fff"/>
          <path id="Path_12253" data-name="Path 12253" d="M376.447,115.824c27.851,27.851,42.086,66.842,42.086,115.117V460.557h-85.41V242.082c0-56.321-33.421-92.218-84.791-92.218-53.845,0-90.361,39.61-90.361,92.837V459.938H73.8V79.308h80.458V129.44c22.281-37.754,60.034-56.94,113.88-56.94C312.081,73.119,348.6,86.735,376.447,115.824Z" transform="translate(374.292 350.835)" fill="#fff"/>
          <path id="Path_12254" data-name="Path 12254" d="M517.584,216.187l-83.553,7.427c-6.189-50.132-43.943-80.458-95.312-80.458-64.367,0-108.309,46.418-108.309,126.258,0,77.983,44.562,125.639,108.309,125.639,51.989,0,87.885-27.851,96.55-75.507l83.553,7.427C503.968,413,434.032,467.465,339.338,467.465c-56.94,0-103.977-17.948-139.874-52.607C162.948,378.961,145,330.686,145,270.033q0-92.837,53.845-144.825C235.361,90.548,282.4,72.6,339.338,72.6,433.413,72.6,504.587,127.064,517.584,216.187Z" transform="translate(743.756 351.354)" fill="#fff"/>
          <path id="Path_12255" data-name="Path 12255" d="M413.3,153.977c-66.223,0-108.309,40.848-108.309,97.169V458.482H220.2V77.851h82.315v53.226C321.7,92.705,357.6,72.9,412.681,72.9v81.077Z" transform="translate(1133.978 352.911)" fill="#fff"/>
          <path id="Path_12256" data-name="Path 12256" d="M579.977,223V460.038h-85.41V426c-29.708,27.232-64.986,41.467-105.215,41.467-78.6,0-129.352-40.848-129.352-111.4,0-71.175,47.656-110.166,142.35-115.117l92.218-4.951v-11.14c0-52.607-22.9-79.221-68.7-79.221-45.18,0-69.937,27.851-69.937,64.367l-85.41-3.095c0-35.9,14.235-66.842,42.086-93.456C340.458,86.216,378.831,72.6,424.63,72.6,524.894,72.6,579.977,125.826,579.977,223Zm-84.791,77.364-81.077,4.951c-46.418,1.857-68.7,18.567-68.7,48.894,0,29.089,19.805,43.324,58.178,43.324,56.94,0,91.6-27.851,91.6-84.172v-13Z" transform="translate(1340.504 351.354)" fill="#fff"/>
        </g>
      </g>
      <g id="Group_240" data-name="Group 240" transform="translate(165.249 362.063)">
        <path id="Path_12258" data-name="Path 12258" d="M258.435,212.476a33.02,33.02,0,0,1-32.8,32.8H61a33.02,33.02,0,0,1-32.8-32.8V95.5A33.02,33.02,0,0,1,61,62.7h164.63a33.02,33.02,0,0,1,32.8,32.8Z" transform="translate(-27.581 -62.081)" fill="#fcf0d4" fill-rule="evenodd"/>
        <path id="Path_12259" data-name="Path 12259" d="M258.954,120.778v-4.332H216.868V63.219h-4.332v53.226H178.5c-4.332-14.235-17.329-24.756-32.8-26.613V62.6h-4.332V89.832c-16.711,0-30.327,11.14-35.278,26.613H75.137V63.219H70.8v53.226H28.1v4.332H70.8v60.034H28.1v4.332H70.8v61.272h4.332V185.144h30.327c3.713,16.711,18.567,29.089,36.516,29.708v31.564h4.332V214.233a38.32,38.32,0,0,0,33.421-29.089h33.421v61.272h4.332V185.144h42.086v-4.332H234.2V120.778ZM104.845,180.812H75.137V120.778h29.708a27.756,27.756,0,0,0-.619,6.808,38.448,38.448,0,0,0,8.665,24.138,38.448,38.448,0,0,0-8.665,24.138C104.226,177.717,104.845,178.955,104.845,180.812ZM141.98,209.9a33.941,33.941,0,0,1-34.04-34.04,31.783,31.783,0,0,1,9.284-22.9l1.238-1.238-1.238-1.238c-5.57-6.189-9.284-14.235-9.284-22.9a34.04,34.04,0,0,1,68.08,0,31.783,31.783,0,0,1-9.284,22.9l-1.238,1.238,1.238,1.238c5.57,6.189,9.284,14.235,9.284,22.9A33.557,33.557,0,0,1,141.98,209.9Zm87.885-29.089H180.352c0-1.238.619-2.476.619-4.332a38.448,38.448,0,0,0-8.665-24.138,38.448,38.448,0,0,0,8.665-24.138,23.207,23.207,0,0,0-.619-6.808h50.132v59.415Z" transform="translate(-28.1 -62.6)" fill="#545454"/>
      </g>
    </g>
    <g id="Group_242" data-name="Group 242" transform="translate(1182.901 848.177)">
      <path id="Path_12260" data-name="Path 12260" d="M355.693,142.692c-5.57,13-10.521,25.994-16.092,38.372-6.808,16.092-13.616,32.183-20.424,48.894-6.189,14.235-12.378,29.089-17.948,43.324-.619,1.857-1.857,1.857-3.714,1.857H265.331c-2.476,0-2.476-1.238-3.094-3.095-4.951-18.567-9.9-37.754-14.854-56.321l-13-50.132c-1.857-7.427-8.046-9.9-14.235-12.378-8.665-3.714-18.567-6.189-27.851-8.665v-3.095c1.238-1.238,3.095-.619,4.951-.619h51.37c12.378,0,18.567,4.951,20.424,17.948,2.476,14.235,5.57,27.851,8.046,42.086,1.857,8.665,3.095,17.33,4.332,25.994,0,1.238.619,2.476,1.857,4.951,3.714-8.665,6.808-16.711,9.9-24.756,8.665-21.043,16.711-42.7,25.375-63.748.619-1.857,1.857-3.095,3.714-2.476h32.8C355.693,142.073,355.693,142.073,355.693,142.692Z" transform="translate(-192.3 -139.48)" fill="#fff"/>
      <path id="Path_12261" data-name="Path 12261" d="M366.013,275.623H335.686c-1.857,0-2.476-.619-2.476-2.476-.619-5.57-2.476-10.521-3.094-16.092,0-1.857-1.238-1.857-2.476-1.857H286.792c-1.238,0-1.857.619-2.476,1.857-1.857,4.951-3.714,9.9-5.57,15.473-.619,1.857-1.857,3.095-3.714,3.095H244.706c-2.476,0-3.714,0-1.857-3.095,8.046-18.567,15.473-37.135,22.9-55.7,9.284-21.662,18.567-43.324,27.232-64.986,3.094-7.427,8.665-10.521,16.092-11.14h25.375c2.476,0,3.095.619,3.714,3.095,2.476,14.235,6.189,28.47,8.665,42.7l9.284,46.418c2.476,12.378,4.951,24.756,8.046,37.135C365.394,271.909,364.775,273.766,366.013,275.623Zm-52.607-95.931a3.4,3.4,0,0,0-1.857,3.095c-5.57,14.235-10.521,28.47-16.092,42.7-.619,2.476.619,3.095,2.476,3.095h21.662c3.714,0,3.714-1.857,3.095-4.332Z" transform="translate(65.368 -139.345)" fill="#fff"/>
      <path id="Path_12262" data-name="Path 12262" d="M297.362,140.6a81.226,81.226,0,0,1,32.8,4.951c1.857.619,2.476.619,1.857,3.095-1.857,7.427-3.095,14.854-4.332,22.281-.619,3.095-1.857,3.714-4.951,2.476a61.8,61.8,0,0,0-27.851-4.951c-4.951,0-10.521.619-14.235,4.951-4.951,5.57-3.714,9.9,1.238,14.235,5.57,4.332,12.378,7.427,18.567,11.14,7.427,4.332,14.235,8.665,19.805,15.473,9.284,11.759,6.189,33.421-2.476,43.943-9.284,11.759-22.281,17.33-37.135,19.805a96.094,96.094,0,0,1-19.186,1.857,122.7,122.7,0,0,1-32.8-6.189,3.126,3.126,0,0,1-2.476-4.332c1.857-8.046,3.095-16.092,4.951-24.137.619-1.857,1.857-2.476,3.095-1.238,6.189,3.095,13,6.189,20.424,6.808,9.284.619,18.567,1.857,27.851-3.095,7.427-4.332,7.427-13.616,0-19.186-8.046-5.57-17.948-9.284-25.994-14.854-9.284-6.808-16.092-15.473-16.711-26.613-.619-10.521,3.095-19.805,9.9-27.851,9.284-10.521,21.662-14.854,35.278-17.33A53.939,53.939,0,0,1,297.362,140.6Z" transform="translate(-17.614 -140.481)" fill="#fff"/>
      <path id="Path_12263" data-name="Path 12263" d="M262.771,140.8h14.235c2.476,0,3.095.619,2.476,3.095-5.57,24.756-11.14,50.132-16.711,74.888-3.714,17.948-7.427,35.9-11.14,53.226-.619,1.857-1.238,3.095-3.714,3.095h-28.47c-3.095,0-3.095-1.238-2.476-3.714l11.14-53.845c3.095-13,5.57-26.613,8.665-39.61,2.476-11.14,4.951-22.9,7.427-34.04.619-2.476,1.238-3.095,3.714-3.095Z" transform="translate(-65.957 -138.826)" fill="#fff"/>
    </g>
    <text id="Adebola_Benson" data-name="Adebola Benson" transform="translate(159.7 936.077)" fill="#fff" font-size="51" font-family="Sailec"><tspan x="0" y="0">Adebola Benson</tspan></text>
    <g id="Group_244" data-name="Group 244" transform="translate(159.841 85.796)">
      <g id="Layer_1_00000009581578136448061080000017587354942350795707_">
        <path id="Path_12264" data-name="Path 12264" d="M153.877,81.048A63.872,63.872,0,0,1,40,120.658c6.189-7.427,13.616-11.759,23.519-10.521h8.046c5.57,0,11.14-1.238,15.473-4.332C95.08,100.853,100.65,94.045,105.6,86c1.238-2.476,1.238-3.095-1.857-3.095H72.181c-17.329,0-29.089,8.046-35.9,23.519l-1.857,5.57A69,69,0,0,1,27,81.048,63.657,63.657,0,0,1,90.748,17.3a62.229,62.229,0,0,1,53.226,29.089c-20.424,0-40.848-.619-61.272,0-16.711,1.238-28.47,17.33-24.756,34.659C62.9,74.24,69.086,73,75.894,73h41.467a27.156,27.156,0,0,0,16.711-5.57,47.562,47.562,0,0,0,13.616-13.616h0A60.413,60.413,0,0,1,153.877,81.048Z" transform="translate(-27 -17.3)" fill="#fff"/>
        <g id="Group_243" data-name="Group 243" transform="translate(152.252 29.089)">
          <path id="Path_12265" data-name="Path 12265" d="M83.783,22.619V31.9H80.689c-5.57,0-9.284,3.713-9.284,9.284v6.808H83.783v9.284H71.405V96.269H60.884V57.278H51.6V47.994h9.284V40.567C60.884,28.808,68.311,22,79.451,22A10.532,10.532,0,0,1,83.783,22.619Zm19.186,3.095a6.731,6.731,0,0,1,0,9.284c-2.476,2.476-6.808,2.476-9.9,0a6.731,6.731,0,0,1,0-9.284C96.162,23.238,100.494,23.238,102.97,25.713Zm.619,69.937H93.067V47.375h10.521Z" transform="translate(-51.6 -22)" fill="#fff"/>
          <path id="Path_12266" data-name="Path 12266" d="M100.354,31.47q5.57,5.57,5.57,14.854V75.413H94.783V47.562c0-7.427-4.332-11.759-10.521-11.759-6.808,0-11.14,4.951-11.14,11.759V75.413H62.6V27.138h9.9v6.189C75.6,28.376,79.929,25.9,86.738,25.9A24.617,24.617,0,0,1,100.354,31.47Z" transform="translate(5.48 -1.762)" fill="#fff"/>
          <path id="Path_12267" data-name="Path 12267" d="M119.156,43.948l-10.521,1.238c-.619-6.189-5.57-9.9-12.378-9.9-8.046,0-13.616,6.189-13.616,16.092s5.57,16.092,13.616,16.092c6.808,0,11.14-3.713,12.378-9.9L119.156,58.8c-1.857,11.14-10.521,17.948-22.9,17.948a25.824,25.824,0,0,1-17.948-6.808C73.976,65.61,71.5,59.421,71.5,51.375s2.476-14.235,6.808-18.567S88.829,26,96.256,26C108.635,26,117.3,32.808,119.156,43.948Z" transform="translate(51.663 -1.244)" fill="#fff"/>
          <path id="Path_12268" data-name="Path 12268" d="M105.337,36c-8.665,0-13.616,4.951-13.616,12.378V74.994H81.2V26.719H91.721v6.808C94.2,28.576,98.529,26.1,105.956,26.1V36Z" transform="translate(101.998 -0.725)" fill="#fff"/>
          <path id="Path_12269" data-name="Path 12269" d="M126.948,44.7V75.027H116.427V70.694a18.2,18.2,0,0,1-13.616,5.57c-9.9,0-16.711-4.951-16.711-14.235s6.189-14.235,17.948-14.854l11.759-.619V45.319c0-6.808-3.095-9.9-8.665-9.9s-8.665,3.713-8.665,8.046l-11.14-.619a15.242,15.242,0,0,1,5.57-11.759c3.713-3.713,8.665-4.951,14.235-4.951C120.14,25.514,126.948,32.322,126.948,44.7Zm-10.521,9.284-10.521.619c-5.57,0-8.665,2.476-8.665,6.189s2.476,5.57,7.427,5.57c7.427,0,11.759-3.713,11.759-10.521Z" transform="translate(127.424 -0.757)" fill="#fff"/>
        </g>
      </g>
    </g>
  </g>
</svg>
